<?xml version="1.0" encoding="UTF-8" standalone="no"?>
<!-- Created with Inkscape (http://www.inkscape.org/) -->

<svg
   xmlns:dc="http://purl.org/dc/elements/1.1/"
   xmlns:cc="http://creativecommons.org/ns#"
   xmlns:rdf="http://www.w3.org/1999/02/22-rdf-syntax-ns#"
   xmlns:svg="http://www.w3.org/2000/svg"
   xmlns="http://www.w3.org/2000/svg"
   xmlns:sodipodi="http://sodipodi.sourceforge.net/DTD/sodipodi-0.dtd"
   xmlns:inkscape="http://www.inkscape.org/namespaces/inkscape"
   width="210mm"
   height="297mm"
   viewBox="0 0 210 297"
   version="1.1"
   id="svg8"
   inkscape:version="0.92.2 (5c3e80d, 2017-08-06)"
   sodipodi:docname="car side.svg">
  <defs
     id="defs2">
    <clipPath
       id="clipPath1412"
       clipPathUnits="userSpaceOnUse">
      <path
         inkscape:connector-curvature="0"
         id="path1410"
         d="M 0,500 H 500 V 0 H 0 Z" />
    </clipPath>
    <clipPath
       id="clipPath1648"
       clipPathUnits="userSpaceOnUse">
      <path
         inkscape:connector-curvature="0"
         id="path1646"
         d="m 289.399,157.216 c -1.449,-7.445 -5.828,-30.084 -5.79,-31.601 v 0 l 55.057,1.244 c 0,0 10.955,13.974 8.625,23.683 v 0 c -0.285,1.186 -36.382,8.545 -54.971,9.008 v 0 c -0.025,10e-4 -0.049,10e-4 -0.074,10e-4 v 0 c -1.384,0 -2.581,-0.97 -2.847,-2.335" />
    </clipPath>
    <clipPath
       id="clipPath1656"
       clipPathUnits="userSpaceOnUse">
      <path
         inkscape:connector-curvature="0"
         id="path1654"
         d="m 289.199,167.123 h 57.665 v -53.938 h -57.665 z" />
    </clipPath>
    <clipPath
       id="clipPath1676"
       clipPathUnits="userSpaceOnUse">
      <path
         inkscape:connector-curvature="0"
         id="path1674"
         d="M 0,500 H 500 V 0 H 0 Z" />
    </clipPath>
    <clipPath
       id="clipPath1688"
       clipPathUnits="userSpaceOnUse">
      <path
         inkscape:connector-curvature="0"
         id="path1686"
         d="m 208.27,149.71 c -1.103,-0.384 -1.968,-1.246 -2.364,-2.346 v 0 l -4.364,-16.203 3.379,-9.152 57.809,3.129 c 1.462,0.079 2.723,1.046 3.173,2.439 v 0 c 2.502,7.755 6.889,25.987 8.093,31.046 v 0 c 0.171,0.718 -0.297,1.439 -1.027,1.554 v 0 c -3.027,0.478 -6.264,0.689 -9.62,0.689 v 0 c -21.595,0 -48.11,-8.724 -55.079,-11.156" />
    </clipPath>
    <clipPath
       id="clipPath1696"
       clipPathUnits="userSpaceOnUse">
      <path
         inkscape:connector-curvature="0"
         id="path1694"
         d="m 208.574,170.011 h 70.237 v -65.877 h -70.237 z" />
    </clipPath>
    <clipPath
       id="clipPath1716"
       clipPathUnits="userSpaceOnUse">
      <path
         inkscape:connector-curvature="0"
         id="path1714"
         d="M 0,500 H 500 V 0 H 0 Z" />
    </clipPath>
    <clipPath
       id="clipPath1856"
       clipPathUnits="userSpaceOnUse">
      <path
         inkscape:connector-curvature="0"
         id="path1854"
         d="m 153.707,257.037 h 42.234 v -14.84 h -42.234 z" />
    </clipPath>
    <clipPath
       id="clipPath1908"
       clipPathUnits="userSpaceOnUse">
      <path
         inkscape:connector-curvature="0"
         id="path1906"
         d="m 145.615,264.121 h 57.921 v -7.088 h -57.921 z" />
    </clipPath>
    <clipPath
       id="clipPath1952"
       clipPathUnits="userSpaceOnUse">
      <path
         inkscape:connector-curvature="0"
         id="path1950"
         d="m 117.11,256.508 h 18.85 v -8.296 h -18.85 z" />
    </clipPath>
    <clipPath
       id="clipPath1996"
       clipPathUnits="userSpaceOnUse">
      <path
         inkscape:connector-curvature="0"
         id="path1994"
         d="M 126.374,295.583 C 111.108,295.48 107.323,270.8 107.323,270.8 v 0 l 5.244,0.591 c 2.667,0.245 5.322,0.306 7.414,-0.028 v 0 c 0.939,-0.151 1.767,-0.378 2.439,-0.702 v 0 c 0,0 77.806,-4.872 85.881,0.154 v 0 c -1.838,4.308 -9.055,12.689 -13.924,18.068 v 0 c -2.536,2.809 -4.437,4.795 -4.591,4.964 v 0 l -0.01,0.01 c -1.198,0.439 -3.055,0.798 -5.392,1.077 v 0 c -0.029,0.01 -0.049,0.01 -0.077,0.011 v 0 c -7.06,0.864 -18.421,1.114 -29.223,1.114 v 0 c -14.888,0 -28.71,-0.476 -28.71,-0.476" />
    </clipPath>
    <clipPath
       id="clipPath2004"
       clipPathUnits="userSpaceOnUse">
      <path
         inkscape:connector-curvature="0"
         id="path2002"
         d="M 104.941,338.611 H 215.484 V 218.352 H 104.941 Z" />
    </clipPath>
    <clipPath
       id="clipPath2024"
       clipPathUnits="userSpaceOnUse">
      <path
         inkscape:connector-curvature="0"
         id="path2022"
         d="M 0,500 H 500 V 0 H 0 Z" />
    </clipPath>
    <clipPath
       id="clipPath2044"
       clipPathUnits="userSpaceOnUse">
      <path
         inkscape:connector-curvature="0"
         id="path2042"
         d="M 95.124,290.894 C 90.591,287.939 83.233,264.453 83.233,264.453 v 0 l -0.005,-0.325 c 0.005,0.325 18.283,5.491 18.283,5.491 v 0 c -0.429,4.251 9.352,20.232 9.352,20.232 v 0 c -0.84,1.102 -4.457,1.391 -8.012,1.391 v 0 c -3.901,0 -7.727,-0.348 -7.727,-0.348" />
    </clipPath>
    <clipPath
       id="clipPath2052"
       clipPathUnits="userSpaceOnUse">
      <path
         inkscape:connector-curvature="0"
         id="path2050"
         d="M 74.0408,295.82 H 116.981 V 265.742 H 74.0408 Z" />
    </clipPath>
    <clipPath
       id="clipPath2072"
       clipPathUnits="userSpaceOnUse">
      <path
         inkscape:connector-curvature="0"
         id="path2070"
         d="m 68.793,276.416 c -2.996,-3.06 -5.359,-15.025 -5.785,-16.242 v 0 c 0,0 12.058,4.07 13.92,2.901 v 0 c 0,0 7.418,22.015 13.251,27.441 v 0 c 0,0 -8.462,-0.899 -21.386,-14.1" />
    </clipPath>
    <clipPath
       id="clipPath2080"
       clipPathUnits="userSpaceOnUse">
      <path
         inkscape:connector-curvature="0"
         id="path2078"
         d="m 53.5564,289.48 h 43.271 v -28.092 h -43.271 z" />
    </clipPath>
    <clipPath
       id="clipPath2100"
       clipPathUnits="userSpaceOnUse">
      <path
         inkscape:connector-curvature="0"
         id="path2098"
         d="M 0,500 H 500 V 0 H 0 Z" />
    </clipPath>
    <clipPath
       id="clipPath2204"
       clipPathUnits="userSpaceOnUse">
      <path
         inkscape:connector-curvature="0"
         id="path2202"
         d="m 119.774,432.037 c -3.671,-0.014 -6.586,-0.11 -8.874,-0.294 v 0 c -0.534,-0.044 -1.032,-0.276 -1.405,-0.66 v 0 c -2.265,-2.328 -7.161,-10.249 -11.733,-18.468 v 0 c -0.812,-1.461 0.199,-3.265 1.87,-3.33 v 0 c 7.105,-0.276 23.195,-0.529 59.301,-0.398 v 0 c 9.115,0.033 17.133,0.084 22.18,0.12 v 0 c 1.691,0.011 2.752,1.813 1.959,3.307 v 0 c -4.03,7.592 -11.775,15.323 -14.6,18.01 v 0 c -0.407,0.387 -0.943,0.602 -1.504,0.612 v 0 c -7.82,0.133 -15.384,0.363 -22.712,0.585 v 0 c -8.736,0.266 -17.008,0.517 -23.597,0.517 v 0 c -0.299,0 -0.594,0 -0.885,-0.001" />
    </clipPath>
    <clipPath
       id="clipPath2212"
       clipPathUnits="userSpaceOnUse">
      <path
         inkscape:connector-curvature="0"
         id="path2210"
         d="M 94.9708,457.994 H 164.379 V 385.841 H 94.9708 Z" />
    </clipPath>
    <clipPath
       id="clipPath2228"
       clipPathUnits="userSpaceOnUse">
      <path
         inkscape:connector-curvature="0"
         id="path2226"
         d="M 112.663,441.332 H 175.34 V 375.517 H 112.663 Z" />
    </clipPath>
    <clipPath
       id="clipPath2244"
       clipPathUnits="userSpaceOnUse">
      <path
         inkscape:connector-curvature="0"
         id="path2242"
         d="M 0,500 H 500 V 0 H 0 Z" />
    </clipPath>
    <clipPath
       id="clipPath2252"
       clipPathUnits="userSpaceOnUse">
      <path
         inkscape:connector-curvature="0"
         id="path2250"
         d="M 79.6301,397.706 H 100.254 V 383.31 H 79.6301 Z" />
    </clipPath>
    <clipPath
       id="clipPath2268"
       clipPathUnits="userSpaceOnUse">
      <path
         inkscape:connector-curvature="0"
         id="path2266"
         d="m 182.957,397.394 h 18.528 v -14.348 h -18.528 z" />
    </clipPath>
    <clipPath
       id="clipPath2288"
       clipPathUnits="userSpaceOnUse">
      <path
         inkscape:connector-curvature="0"
         id="path2286"
         d="m 125.951,368.38 c -1.467,-0.084 -22.878,-6.561 -22.878,-6.561 v 0 c -3.092,-0.871 -5.506,-2.611 -7.399,-4.765 v 0 c -6.078,-6.905 -6.708,-18.035 -6.708,-18.035 v 0 c -1.892,-4.036 -1.977,-7.095 -1.976,-7.576 v 0 c 0.862,-0.312 1.677,-0.526 2.403,-0.667 v 0 c 1.867,-0.377 3.152,-0.303 3.152,-0.303 v 0 c 54.887,-9.091 94.688,0.039 94.688,0.039 v 0 c 0.968,0.044 1.883,0.145 2.753,0.297 v 0 c 1.951,0.344 3.655,0.938 5.147,1.707 v 0 c 0.019,0.056 0.032,0.101 0.036,0.144 v 0 c 0.226,1.68 -1.642,6.434 -1.642,6.434 v 0 c 0.23,10.475 -3.608,16.295 -6.853,19.328 v 0 c -2.316,2.171 -4.332,2.913 -4.332,2.913 v 0 c -16.448,6.77 -30.818,8.383 -40.946,8.382 v 0 c -9.082,0 -14.754,-1.298 -15.445,-1.337" />
    </clipPath>
    <clipPath
       id="clipPath2336"
       clipPathUnits="userSpaceOnUse">
      <path
         inkscape:connector-curvature="0"
         id="path2334"
         d="M 0,500 H 500 V 0 H 0 Z" />
    </clipPath>
    <clipPath
       id="clipPath2476"
       clipPathUnits="userSpaceOnUse">
      <path
         inkscape:connector-curvature="0"
         id="path2474"
         d="m 340.335,293.117 c -5.656,-2.107 -14.164,-9.314 -20.912,-15.7 v 0 c -1.213,-1.148 -0.378,-3.184 1.29,-3.153 v 0 c 9.044,0.172 24.436,0.292 50.86,0.292 v 0 c 19.083,0 36.608,-0.07 41.865,-0.093 v 0 c 0.84,-0.003 1.583,0.558 1.778,1.376 v 0 c 0.762,3.202 1.223,9.581 1.147,16.316 v 0 c -0.009,0.786 -0.517,1.488 -1.269,1.721 v 0 c -7.8,2.421 -17.856,3.646 -29.956,3.646 v 0 c -21.508,0 -42.459,-3.948 -44.803,-4.405" />
    </clipPath>
    <clipPath
       id="clipPath2484"
       clipPathUnits="userSpaceOnUse">
      <path
         inkscape:connector-curvature="0"
         id="path2482"
         d="m 350.935,307.386 h 61.139 v -53.765 h -61.139 z" />
    </clipPath>
    <clipPath
       id="clipPath2504"
       clipPathUnits="userSpaceOnUse">
      <path
         inkscape:connector-curvature="0"
         id="path2502"
         d="m 426.734,296.249 c -3.401,-0.882 -1.89,-9.826 -1.89,-9.826 v 0 c 0,0 2.52,-14.864 5.669,-17.257 v 0 c 3.149,-2.393 10.329,2.142 10.329,2.142 v 0 c -2.561,11 -7.306,19.65 -10.959,24.815 v 0 c -0.174,0.247 -0.678,0.323 -1.233,0.323 v 0 c -0.892,0 -1.916,-0.197 -1.916,-0.197" />
    </clipPath>
    <clipPath
       id="clipPath2512"
       clipPathUnits="userSpaceOnUse">
      <path
         inkscape:connector-curvature="0"
         id="path2510"
         d="m 418.656,298.098 h 21.858 v -30.215 h -21.858 z" />
    </clipPath>
    <clipPath
       id="clipPath2532"
       clipPathUnits="userSpaceOnUse">
      <path
         inkscape:connector-curvature="0"
         id="path2530"
         d="m 433.242,292.932 c 3.864,-5.543 7.978,-20.071 8.566,-20.575 v 0 c 0.588,-0.504 6.131,1.596 6.131,1.596 v 0 c -3.023,14.024 -14.277,20.239 -14.277,20.239 v 0 c -0.11,0.019 -0.205,0.028 -0.287,0.028 v 0 c -0.991,0 -0.133,-1.288 -0.133,-1.288" />
    </clipPath>
    <clipPath
       id="clipPath2540"
       clipPathUnits="userSpaceOnUse">
      <path
         inkscape:connector-curvature="0"
         id="path2538"
         d="m 435.27,293.216 h 8.138 v -16.972 h -8.138 z" />
    </clipPath>
    <clipPath
       id="clipPath2556"
       clipPathUnits="userSpaceOnUse">
      <path
         inkscape:connector-curvature="0"
         id="path2554"
         d="m 438.473,291.27 h 10.55 v -19.802 h -10.55 z" />
    </clipPath>
    <clipPath
       id="clipPath2572"
       clipPathUnits="userSpaceOnUse">
      <path
         inkscape:connector-curvature="0"
         id="path2570"
         d="M 0,500 H 500 V 0 H 0 Z" />
    </clipPath>
    <clipPath
       id="clipPath2628"
       clipPathUnits="userSpaceOnUse">
      <path
         inkscape:connector-curvature="0"
         id="path2626"
         d="m 421.39,244.526 h 11.128 V 228.369 H 421.39 Z" />
    </clipPath>
    <clipPath
       id="clipPath2644"
       clipPathUnits="userSpaceOnUse">
      <path
         inkscape:connector-curvature="0"
         id="path2642"
         d="m 303.793,236.666 c -10.581,-2.389 -11.851,-24.187 -12.477,-24.317 v 0 l -0.12,-0.051 c -0.605,-0.383 -1.32,-2.701 -2.147,-4.353 v 0 c -0.876,-1.764 -0.252,-3.447 -0.252,-3.447 v 0 l 0.222,-0.463 c 22.614,-2.51 75.421,-1.623 105.421,-0.847 v 0 l -1.34,8.657 c -0.383,6.429 -6.722,18.523 -6.722,18.523 v 0 c -5.703,9.744 -30.232,13.1 -30.232,13.1 v 0 c 0,0 -25.91,-1.129 -28.722,0.171 v 0 c -0.204,0.095 -0.505,0.139 -0.886,0.139 v 0 c -4.849,0 -22.745,-7.112 -22.745,-7.112" />
    </clipPath>
    <clipPath
       id="clipPath2704"
       clipPathUnits="userSpaceOnUse">
      <path
         inkscape:connector-curvature="0"
         id="path2702"
         d="M 0,500 H 500 V 0 H 0 Z" />
    </clipPath>
    <clipPath
       id="clipPath2716"
       clipPathUnits="userSpaceOnUse">
      <path
         inkscape:connector-curvature="0"
         id="path2714"
         d="M 280.756,212.732 H 419.473 V 202.379 H 280.756 Z" />
    </clipPath>
    <clipPath
       id="clipPath2772"
       clipPathUnits="userSpaceOnUse">
      <path
         inkscape:connector-curvature="0"
         id="path2770"
         d="m 290.564,263.875 h 13.023 v -7.518 h -13.023 z" />
    </clipPath>
    <clipPath
       id="clipPath2788"
       clipPathUnits="userSpaceOnUse">
      <path
         inkscape:connector-curvature="0"
         id="path2786"
         d="m 389.563,264.298 h 26.933 v -9.051 h -26.933 z" />
    </clipPath>
    <clipPath
       id="clipPath2808"
       clipPathUnits="userSpaceOnUse">
      <path
         inkscape:connector-curvature="0"
         id="path2806"
         d="m 434.47,219.03 h 21.877 V 205.525 H 434.47 Z" />
    </clipPath>
    <clipPath
       id="clipPath2916"
       clipPathUnits="userSpaceOnUse">
      <path
         inkscape:connector-curvature="0"
         id="path2914"
         d="m 300.615,388.066 h 13.161 v -13.277 h -13.161 z" />
    </clipPath>
    <clipPath
       id="clipPath2936"
       clipPathUnits="userSpaceOnUse">
      <path
         inkscape:connector-curvature="0"
         id="path2934"
         d="m 415.758,387.349 h 13.667 v -12.224 h -13.667 z" />
    </clipPath>
    <clipPath
       id="clipPath2952"
       clipPathUnits="userSpaceOnUse">
      <path
         inkscape:connector-curvature="0"
         id="path2950"
         d="m 300.802,401.223 h 8.879 v -4.024 h -8.879 z" />
    </clipPath>
    <clipPath
       id="clipPath2968"
       clipPathUnits="userSpaceOnUse">
      <path
         inkscape:connector-curvature="0"
         id="path2966"
         d="m 419.396,400.39 h 9.473 v -4.688 h -9.473 z" />
    </clipPath>
    <clipPath
       id="clipPath2984"
       clipPathUnits="userSpaceOnUse">
      <path
         inkscape:connector-curvature="0"
         id="path2982"
         d="m 341.951,430.111 c -10.92,-0.511 -13.66,-3.35 -13.66,-3.35 v 0 c -1.646,-1.106 -7.508,-9.692 -7.508,-9.692 v 0 c -5.547,-8.743 5.931,-10.233 5.931,-10.233 v 0 c 50.351,-6.417 78.023,0.637 78.023,0.637 v 0 c 10.95,3.222 -0.763,15.556 -0.763,15.556 v 0 c -4.085,5.053 -12.047,6.792 -12.047,6.792 v 0 c -2.266,0.635 -9.906,0.833 -18.556,0.833 v 0 c -14.327,0 -31.42,-0.543 -31.42,-0.543" />
    </clipPath>
    <clipPath
       id="clipPath2992"
       clipPathUnits="userSpaceOnUse">
      <path
         inkscape:connector-curvature="0"
         id="path2990"
         d="m 322.265,460.246 h 84.252 v -83.569 h -84.252 z" />
    </clipPath>
    <clipPath
       id="clipPath3012"
       clipPathUnits="userSpaceOnUse">
      <path
         inkscape:connector-curvature="0"
         id="path3010"
         d="M 0,500 H 500 V 0 H 0 Z" />
    </clipPath>
    <clipPath
       id="clipPath3032"
       clipPathUnits="userSpaceOnUse">
      <path
         inkscape:connector-curvature="0"
         id="path3030"
         d="M 0,500 H 500 V 0 H 0 Z" />
    </clipPath>
  </defs>
  <sodipodi:namedview
     id="base"
     pagecolor="#ffffff"
     bordercolor="#666666"
     borderopacity="1.0"
     inkscape:pageopacity="0.0"
     inkscape:pageshadow="2"
     inkscape:zoom="0.98994948"
     inkscape:cx="551.3231"
     inkscape:cy="705.549"
     inkscape:document-units="mm"
     inkscape:current-layer="layer1"
     showgrid="false"
     inkscape:window-width="2736"
     inkscape:window-height="1699"
     inkscape:window-x="-13"
     inkscape:window-y="-13"
     inkscape:window-maximized="1" />
  <metadata
     id="metadata5">
    <rdf:RDF>
      <cc:Work
         rdf:about="">
        <dc:format>image/svg+xml</dc:format>
        <dc:type
           rdf:resource="http://purl.org/dc/dcmitype/StillImage" />
        <dc:title />
      </cc:Work>
    </rdf:RDF>
  </metadata>
  <g
     inkscape:label="Layer 1"
     inkscape:groupmode="layer"
     id="layer1">
    <g
       transform="matrix(0.6159228,0,0,-0.67264473,-46.673858,193.62707)"
       id="g4176">
      <g
         id="g1406">
        <g
           clip-path="url(#clipPath1412)"
           id="g1408">
          <g
             transform="translate(409.7151,75.9067)"
             id="g1414">
            <path
               inkscape:connector-curvature="0"
               id="path1416"
               style="fill:#eebb2d;fill-opacity:1;fill-rule:nonzero;stroke:none"
               d="m 0,0 c 0,0 -0.098,-1.666 -0.385,-4.04 -0.675,-5.582 -2.361,-15.061 -6.17,-15.974 0,0 -7.863,-1.71 -9.376,-0.778 0,0 0.621,26.516 -21.103,33.327 -12.868,4.023 -37.859,4.179 -41.552,-34.388 0,0 -146.931,3.544 -156.864,1.93 0,0 -3.859,0.698 -3.061,6.711 0,0 0.071,1.294 -0.071,3.386 -0.497,8.055 -3.948,28.005 -25.414,32.563 0,0 -30.772,7.076 -37.299,-27.509 -0.303,-1.625 -0.559,-3.336 -0.737,-5.144 -0.208,-1.796 -0.338,-3.689 -0.409,-5.678 0,0 -11.802,-2.74 -16.67,1.243 0,0 -12.208,-0.076 -12.426,0.577 l -0.496,3.406 c 0,0 0.121,0.14 0.32,0.39 1.089,1.33 4.372,5.66 1.534,6 0,0 -2.27,10.088 -0.772,20.893 1.637,11.754 7.722,24.349 26.033,25.802 0,0 44.133,8.916 56.22,15.11 21.974,11.264 59.211,34.78 113.808,31.722 23.578,-1.324 62.484,-0.83 94,-9.3 0,0 1.469,-1.884 2.125,-4.509 0,0 21.819,-23.077 23.083,-24.246 1.054,-0.972 2.079,-1.933 3.04,-2.901 1.508,-1.502 2.88,-3.009 4.02,-4.598 3.647,-5.046 5.015,-10.88 1.191,-19.699 0,0 9.875,-16.367 7.431,-24.296" />
          </g>
          <g
             transform="translate(114.8191,58.921)"
             id="g1418">
            <path
               inkscape:connector-curvature="0"
               id="path1420"
               style="fill:#2a2b2a;fill-opacity:1;fill-rule:nonzero;stroke:none"
               d="m 0,0 -7.545,1.392 c 0,0 -2.879,38.526 31.742,39.165 13.171,0.242 35.403,-8.565 32.309,-41.628 0,0 -2.942,-5.614 -8.95,-6.502 0,0 17.117,29.644 -15.906,41.038 C 19.999,37.485 -2.982,28.849 0,0" />
          </g>
          <g
             transform="translate(335.8172,54.438)"
             id="g1422">
            <path
               inkscape:connector-curvature="0"
               id="path1424"
               style="fill:#2a2b2a;fill-opacity:1;fill-rule:nonzero;stroke:none"
               d="m 0,0 -4.854,-0.25 c 0,0 -2.632,34.486 30.431,37.024 13.135,1.008 35.03,-10.017 32.39,-36.097 0,0 -0.48,2.617 -4.429,1.373 0,0 0.201,18.281 -19.364,26.195 C 22.749,32.867 0.5,28.427 0,0" />
          </g>
          <g
             transform="translate(167.924,65.9443)"
             id="g1426">
            <path
               inkscape:connector-curvature="0"
               id="path1428"
               style="fill:#3d4039;fill-opacity:1;fill-rule:nonzero;stroke:none"
               d="m 0,0 c -0.683,-14.695 -13.535,-26.036 -28.705,-25.331 -15.17,0.705 -26.914,13.19 -26.231,27.886 C -54.252,17.25 -41.4,28.591 -26.23,27.886 -11.06,27.18 0.683,14.696 0,0" />
          </g>
          <g
             transform="translate(159.338,65.7762)"
             id="g1430">
            <path
               inkscape:connector-curvature="0"
               id="path1432"
               style="fill:#d6e3dd;fill-opacity:1;fill-rule:nonzero;stroke:none"
               d="m 0,0 c -0.503,-10.812 -9.789,-19.164 -20.741,-18.655 -10.953,0.509 -19.424,9.687 -18.921,20.499 0.503,10.813 9.789,19.165 20.741,18.655 C -7.968,19.99 0.503,10.812 0,0" />
          </g>
          <g
             transform="translate(153.4451,66.5838)"
             id="g1434">
            <path
               inkscape:connector-curvature="0"
               id="path1436"
               style="fill:#3d4039;fill-opacity:1;fill-rule:nonzero;stroke:none"
               d="m 0,0 c -0.353,-7.596 -6.745,-13.469 -14.275,-13.119 -7.531,0.35 -13.35,6.792 -12.996,14.387 0.353,7.596 6.744,13.469 14.275,13.119 C -5.465,14.037 0.353,7.596 0,0" />
          </g>
          <g
             transform="translate(156.5468,63.2956)"
             id="g1438">
            <path
               inkscape:connector-curvature="0"
               id="path1440"
               style="fill:#d6e3dd;fill-opacity:1;fill-rule:nonzero;stroke:none"
               d="m 0,0 0.562,5.204 -10.715,0.559 c -0.058,0.196 -0.124,0.387 -0.199,0.575 l 8.396,6.242 -3.257,4.097 -7.953,-7.076 c -0.176,0.104 -0.357,0.199 -0.542,0.288 l 1.673,10.58 -5.208,0.53 -0.727,-10.534 c -0.271,-0.047 -0.535,-0.112 -0.793,-0.189 l -6.558,8.495 -3.96,-3.423 6.975,-7.559 c -0.329,-0.449 -0.603,-0.94 -0.81,-1.465 l -10.555,0.921 -0.166,-5.231 10.578,0.008 c 0.053,-0.166 0.11,-0.331 0.175,-0.491 l -8.366,-6.937 3.559,-3.839 7.615,7.536 c 0.284,-0.168 0.585,-0.311 0.894,-0.438 l -2.229,-10.468 5.152,-0.924 1.438,11.06 c 0.202,0.05 0.4,0.11 0.595,0.177 l -0.123,-0.091 6.174,-8.94 4.208,3.112 -6.942,8.374 c 0.292,0.405 0.537,0.844 0.73,1.31 z" />
          </g>
          <g
             transform="translate(138.5662,70.7449)"
             id="g1442">
            <path
               inkscape:connector-curvature="0"
               id="path1444"
               style="fill:#c6c6c6;fill-opacity:1;fill-rule:nonzero;stroke:none"
               d="m 0,0 c -0.038,-0.822 -0.736,-1.457 -1.558,-1.419 -0.822,0.038 -1.457,0.735 -1.419,1.558 0.038,0.822 0.736,1.457 1.558,1.419 C -0.597,1.52 0.038,0.822 0,0" />
          </g>
          <g
             transform="translate(138.5662,70.7449)"
             id="g1446">
            <path
               inkscape:connector-curvature="0"
               id="path1448"
               style="fill:none;stroke:#3d4039;stroke-width:0.1;stroke-linecap:butt;stroke-linejoin:miter;stroke-miterlimit:10;stroke-dasharray:none;stroke-opacity:1"
               d="m 0,0 c -0.038,-0.822 -0.736,-1.457 -1.558,-1.419 -0.822,0.038 -1.457,0.735 -1.419,1.558 0.038,0.822 0.736,1.457 1.558,1.419 C -0.597,1.52 0.038,0.822 0,0 Z" />
          </g>
          <g
             transform="translate(144.9401,69.7352)"
             id="g1450">
            <path
               inkscape:connector-curvature="0"
               id="path1452"
               style="fill:#c6c6c6;fill-opacity:1;fill-rule:nonzero;stroke:none"
               d="m 0,0 c -0.038,-0.822 -0.736,-1.458 -1.558,-1.419 -0.822,0.038 -1.457,0.735 -1.419,1.557 0.038,0.822 0.736,1.458 1.558,1.42 C -0.597,1.519 0.038,0.822 0,0" />
          </g>
          <g
             transform="translate(144.9401,69.7352)"
             id="g1454">
            <path
               inkscape:connector-curvature="0"
               id="path1456"
               style="fill:none;stroke:#3d4039;stroke-width:0.1;stroke-linecap:butt;stroke-linejoin:miter;stroke-miterlimit:10;stroke-dasharray:none;stroke-opacity:1"
               d="m 0,0 c -0.038,-0.822 -0.736,-1.458 -1.558,-1.419 -0.822,0.038 -1.457,0.735 -1.419,1.557 0.038,0.822 0.736,1.458 1.558,1.42 C -0.597,1.519 0.038,0.822 0,0 Z" />
          </g>
          <g
             transform="translate(143.8038,63.432)"
             id="g1458">
            <path
               inkscape:connector-curvature="0"
               id="path1460"
               style="fill:#c6c6c6;fill-opacity:1;fill-rule:nonzero;stroke:none"
               d="m 0,0 c -0.038,-0.822 -0.736,-1.458 -1.558,-1.419 -0.822,0.038 -1.457,0.735 -1.419,1.557 0.038,0.822 0.736,1.458 1.558,1.42 C -0.597,1.519 0.038,0.822 0,0" />
          </g>
          <g
             transform="translate(143.8038,63.432)"
             id="g1462">
            <path
               inkscape:connector-curvature="0"
               id="path1464"
               style="fill:none;stroke:#3d4039;stroke-width:0.1;stroke-linecap:butt;stroke-linejoin:miter;stroke-miterlimit:10;stroke-dasharray:none;stroke-opacity:1"
               d="m 0,0 c -0.038,-0.822 -0.736,-1.458 -1.558,-1.419 -0.822,0.038 -1.457,0.735 -1.419,1.557 0.038,0.822 0.736,1.458 1.558,1.42 C -0.597,1.519 0.038,0.822 0,0 Z" />
          </g>
          <g
             transform="translate(137.3652,64.4449)"
             id="g1466">
            <path
               inkscape:connector-curvature="0"
               id="path1468"
               style="fill:#c6c6c6;fill-opacity:1;fill-rule:nonzero;stroke:none"
               d="m 0,0 c -0.038,-0.822 -0.736,-1.458 -1.558,-1.419 -0.822,0.038 -1.457,0.735 -1.419,1.557 0.038,0.823 0.736,1.458 1.558,1.42 C -0.597,1.519 0.038,0.822 0,0" />
          </g>
          <g
             transform="translate(137.3652,64.4449)"
             id="g1470">
            <path
               inkscape:connector-curvature="0"
               id="path1472"
               style="fill:none;stroke:#3d4039;stroke-width:0.1;stroke-linecap:butt;stroke-linejoin:miter;stroke-miterlimit:10;stroke-dasharray:none;stroke-opacity:1"
               d="m 0,0 c -0.038,-0.822 -0.736,-1.458 -1.558,-1.419 -0.822,0.038 -1.457,0.735 -1.419,1.557 0.038,0.823 0.736,1.458 1.558,1.42 C -0.597,1.519 0.038,0.822 0,0 Z" />
          </g>
          <g
             transform="translate(390.3269,58.1963)"
             id="g1474">
            <path
               inkscape:connector-curvature="0"
               id="path1476"
               style="fill:#3d4039;fill-opacity:1;fill-rule:nonzero;stroke:none"
               d="m 0,0 c -0.683,-14.695 -13.535,-26.036 -28.705,-25.331 -15.17,0.705 -26.914,13.19 -26.231,27.886 0.684,14.695 13.535,26.036 28.706,25.331 C -11.06,27.18 0.683,14.695 0,0" />
          </g>
          <g
             transform="translate(381.7409,58.0281)"
             id="g1478">
            <path
               inkscape:connector-curvature="0"
               id="path1480"
               style="fill:#d6e3dd;fill-opacity:1;fill-rule:nonzero;stroke:none"
               d="m 0,0 c -0.503,-10.812 -9.789,-19.164 -20.741,-18.655 -10.953,0.509 -19.424,9.687 -18.921,20.499 0.503,10.813 9.789,19.165 20.741,18.655 C -7.968,19.99 0.503,10.812 0,0" />
          </g>
          <g
             transform="translate(375.8479,58.8358)"
             id="g1482">
            <path
               inkscape:connector-curvature="0"
               id="path1484"
               style="fill:#3d4039;fill-opacity:1;fill-rule:nonzero;stroke:none"
               d="m 0,0 c -0.353,-7.596 -6.744,-13.469 -14.275,-13.119 -7.531,0.35 -13.35,6.792 -12.996,14.387 0.353,7.596 6.744,13.469 14.275,13.119 C -5.465,14.037 0.353,7.596 0,0" />
          </g>
          <g
             transform="translate(378.9497,55.5476)"
             id="g1486">
            <path
               inkscape:connector-curvature="0"
               id="path1488"
               style="fill:#d6e3dd;fill-opacity:1;fill-rule:nonzero;stroke:none"
               d="m 0,0 0.562,5.204 -10.715,0.559 c -0.058,0.195 -0.124,0.387 -0.199,0.575 l 8.396,6.242 -3.257,4.097 -7.953,-7.076 c -0.176,0.104 -0.357,0.199 -0.542,0.288 l 1.673,10.58 -5.207,0.53 -0.728,-10.534 c -0.271,-0.047 -0.535,-0.112 -0.793,-0.189 l -6.558,8.495 -3.96,-3.423 6.975,-7.559 c -0.329,-0.449 -0.603,-0.94 -0.81,-1.465 l -10.555,0.921 -0.166,-5.232 10.578,0.009 c 0.053,-0.166 0.11,-0.331 0.175,-0.491 l -8.366,-6.937 3.559,-3.839 7.615,7.536 c 0.284,-0.168 0.585,-0.311 0.894,-0.438 l -2.229,-10.468 5.152,-0.924 1.438,11.06 c 0.202,0.05 0.4,0.11 0.595,0.177 l -0.122,-0.091 6.173,-8.94 4.208,3.112 -6.942,8.374 c 0.292,0.405 0.537,0.844 0.73,1.31 z" />
          </g>
          <g
             transform="translate(360.969,62.9969)"
             id="g1490">
            <path
               inkscape:connector-curvature="0"
               id="path1492"
               style="fill:#c6c6c6;fill-opacity:1;fill-rule:nonzero;stroke:none"
               d="m 0,0 c -0.038,-0.822 -0.736,-1.458 -1.558,-1.419 -0.822,0.038 -1.457,0.735 -1.419,1.557 0.038,0.823 0.736,1.458 1.558,1.42 C -0.597,1.52 0.038,0.822 0,0" />
          </g>
          <g
             transform="translate(360.969,62.9969)"
             id="g1494">
            <path
               inkscape:connector-curvature="0"
               id="path1496"
               style="fill:none;stroke:#3d4039;stroke-width:0.1;stroke-linecap:butt;stroke-linejoin:miter;stroke-miterlimit:10;stroke-dasharray:none;stroke-opacity:1"
               d="m 0,0 c -0.038,-0.822 -0.736,-1.458 -1.558,-1.419 -0.822,0.038 -1.457,0.735 -1.419,1.557 0.038,0.823 0.736,1.458 1.558,1.42 C -0.597,1.52 0.038,0.822 0,0 Z" />
          </g>
          <g
             transform="translate(367.3429,61.9871)"
             id="g1498">
            <path
               inkscape:connector-curvature="0"
               id="path1500"
               style="fill:#c6c6c6;fill-opacity:1;fill-rule:nonzero;stroke:none"
               d="m 0,0 c -0.038,-0.822 -0.736,-1.458 -1.558,-1.419 -0.822,0.038 -1.457,0.735 -1.419,1.557 0.038,0.822 0.736,1.458 1.558,1.42 C -0.597,1.519 0.038,0.822 0,0" />
          </g>
          <g
             transform="translate(367.3429,61.9871)"
             id="g1502">
            <path
               inkscape:connector-curvature="0"
               id="path1504"
               style="fill:none;stroke:#3d4039;stroke-width:0.1;stroke-linecap:butt;stroke-linejoin:miter;stroke-miterlimit:10;stroke-dasharray:none;stroke-opacity:1"
               d="m 0,0 c -0.038,-0.822 -0.736,-1.458 -1.558,-1.419 -0.822,0.038 -1.457,0.735 -1.419,1.557 0.038,0.822 0.736,1.458 1.558,1.42 C -0.597,1.519 0.038,0.822 0,0 Z" />
          </g>
          <g
             transform="translate(366.2066,55.6839)"
             id="g1506">
            <path
               inkscape:connector-curvature="0"
               id="path1508"
               style="fill:#c6c6c6;fill-opacity:1;fill-rule:nonzero;stroke:none"
               d="m 0,0 c -0.038,-0.822 -0.736,-1.458 -1.558,-1.419 -0.822,0.038 -1.457,0.735 -1.419,1.557 0.038,0.823 0.736,1.458 1.558,1.42 C -0.597,1.52 0.038,0.822 0,0" />
          </g>
          <g
             transform="translate(366.2066,55.6839)"
             id="g1510">
            <path
               inkscape:connector-curvature="0"
               id="path1512"
               style="fill:none;stroke:#3d4039;stroke-width:0.1;stroke-linecap:butt;stroke-linejoin:miter;stroke-miterlimit:10;stroke-dasharray:none;stroke-opacity:1"
               d="m 0,0 c -0.038,-0.822 -0.736,-1.458 -1.558,-1.419 -0.822,0.038 -1.457,0.735 -1.419,1.557 0.038,0.823 0.736,1.458 1.558,1.42 C -0.597,1.52 0.038,0.822 0,0 Z" />
          </g>
          <g
             transform="translate(359.768,56.6967)"
             id="g1514">
            <path
               inkscape:connector-curvature="0"
               id="path1516"
               style="fill:#c6c6c6;fill-opacity:1;fill-rule:nonzero;stroke:none"
               d="m 0,0 c -0.038,-0.822 -0.736,-1.457 -1.558,-1.419 -0.822,0.038 -1.457,0.735 -1.419,1.558 0.038,0.822 0.736,1.457 1.558,1.419 C -0.597,1.52 0.038,0.822 0,0" />
          </g>
          <g
             transform="translate(359.768,56.6967)"
             id="g1518">
            <path
               inkscape:connector-curvature="0"
               id="path1520"
               style="fill:none;stroke:#3d4039;stroke-width:0.1;stroke-linecap:butt;stroke-linejoin:miter;stroke-miterlimit:10;stroke-dasharray:none;stroke-opacity:1"
               d="m 0,0 c -0.038,-0.822 -0.736,-1.457 -1.558,-1.419 -0.822,0.038 -1.457,0.735 -1.419,1.558 0.038,0.822 0.736,1.457 1.558,1.419 C -0.597,1.52 0.038,0.822 0,0 Z" />
          </g>
          <g
             transform="translate(397.0732,124.4993)"
             id="g1522">
            <path
               inkscape:connector-curvature="0"
               id="path1524"
               style="fill:#e59c0a;fill-opacity:1;fill-rule:nonzero;stroke:none"
               d="m 0,0 c -0.021,0.001 -0.042,-0.008 -0.063,-0.007 -3.296,-0.366 -15.268,2.609 -15.268,2.609 -6.714,0.208 -14.723,0.259 -23.682,0.188 -50.079,-0.422 -130.009,-4.767 -181.863,-7.887 -29.982,-1.823 -50.583,-3.22 -50.583,-3.22 -15.026,-10.717 -46.749,-23.417 -46.749,-23.417 l -0.101,0.057 c 1.637,11.754 7.722,24.349 26.033,25.801 0,0 7.678,1.552 17.517,3.814 13.73,3.149 31.656,7.691 38.703,11.296 21.974,11.265 59.211,34.781 113.808,31.723 23.578,-1.325 62.484,-0.83 94,-9.3 0,0 1.469,-1.885 2.125,-4.51 l 0.01,-0.01 C -25.569,26.561 -6.994,6.915 -3.536,3.402 -3.289,3.142 -3.12,2.978 -3.04,2.902 -1.986,1.929 -0.962,0.968 0,0" />
          </g>
          <g
             transform="translate(268.5287,113.7335)"
             id="g1526">
            <path
               inkscape:connector-curvature="0"
               id="path1528"
               style="fill:#f49211;fill-opacity:1;fill-rule:nonzero;stroke:none"
               d="m 0,0 c -0.103,-2.216 -4.823,-3.797 -10.541,-3.531 -5.719,0.266 -10.272,2.278 -10.169,4.494 0.104,2.216 4.823,3.797 10.542,3.531 C -4.449,4.228 0.103,2.216 0,0" />
          </g>
          <g
             transform="translate(350.6845,117.5229)"
             id="g1530">
            <path
               inkscape:connector-curvature="0"
               id="path1532"
               style="fill:#f49211;fill-opacity:1;fill-rule:nonzero;stroke:none"
               d="m 0,0 c -0.103,-2.216 -4.823,-3.797 -10.541,-3.531 -5.719,0.266 -10.272,2.278 -10.168,4.494 0.103,2.216 4.822,3.797 10.541,3.531 C -4.449,4.228 0.103,2.216 0,0" />
          </g>
          <g
             transform="translate(381.8111,106.2604)"
             id="g1534">
            <path
               inkscape:connector-curvature="0"
               id="path1536"
               style="fill:#f49211;fill-opacity:1;fill-rule:nonzero;stroke:none"
               d="m 0,0 c -0.171,-3.67 -3.284,-6.506 -6.953,-6.335 -3.67,0.17 -6.506,3.283 -6.336,6.953 0.171,3.669 3.284,6.506 6.954,6.335 C -2.666,6.783 0.171,3.67 0,0" />
          </g>
          <g
             transform="translate(178.2875,136.9115)"
             id="g1538">
            <path
               inkscape:connector-curvature="0"
               id="path1540"
               style="fill:#eebb2d;fill-opacity:1;fill-rule:nonzero;stroke:none"
               d="m 0,0 c 0,0 -31.891,-16.331 -18.602,-16.949 l 16.511,-0.56 c 0,0 -0.686,9.855 2.091,17.509" />
          </g>
          <g
             transform="translate(402.2838,100.2028)"
             id="g1542">
            <path
               inkscape:connector-curvature="0"
               id="path1544"
               style="fill:#d6e3dd;fill-opacity:1;fill-rule:nonzero;stroke:none"
               d="m 0,0 c -5.551,-0.437 -22.768,16.282 -22.768,16.282 -6.511,8.605 20.918,3.521 20.918,3.521 l 0.66,-0.104 C 2.456,14.652 3.824,8.819 0,0" />
          </g>
          <g
             transform="translate(208.2702,149.7108)"
             id="g1546">
            <path
               inkscape:connector-curvature="0"
               id="path1548"
               style="fill:#d6e3dd;fill-opacity:1;fill-rule:nonzero;stroke:none"
               d="m 0,0 c 8.052,2.809 42.197,14.019 64.699,10.467 0.729,-0.115 1.198,-0.836 1.027,-1.555 -1.204,-5.059 -5.591,-23.291 -8.093,-31.046 -0.45,-1.394 -1.711,-2.36 -3.173,-2.439 l -57.809,-3.128 -3.38,9.151 4.365,16.203 C -1.968,-1.247 -1.103,-0.385 0,0" />
          </g>
          <g
             transform="translate(208.2702,149.7108)"
             id="g1550">
            <path
               inkscape:connector-curvature="0"
               id="path1552"
               style="fill:#d6e3dd;fill-opacity:1;fill-rule:nonzero;stroke:none"
               d="m 0,0 c 8.052,2.809 42.197,14.019 64.699,10.467 0.729,-0.115 1.198,-0.836 1.027,-1.555 -1.204,-5.059 -5.591,-23.291 -8.093,-31.046 -0.45,-1.394 -1.711,-2.36 -3.173,-2.439 l -57.809,-3.128 -3.38,9.151 4.365,16.203 C -1.968,-1.247 -1.103,-0.385 0,0" />
          </g>
          <g
             transform="translate(208.2702,149.7108)"
             id="g1554">
            <path
               inkscape:connector-curvature="0"
               id="path1556"
               style="fill:#d6e3dd;fill-opacity:1;fill-rule:nonzero;stroke:none"
               d="m 0,0 c 8.052,2.809 42.197,14.019 64.699,10.467 0.729,-0.115 1.198,-0.836 1.027,-1.555 -1.204,-5.059 -5.591,-23.291 -8.093,-31.046 -0.45,-1.394 -1.711,-2.36 -3.173,-2.439 l -57.809,-3.128 -3.38,9.151 4.365,16.203 C -1.968,-1.247 -1.103,-0.385 0,0" />
          </g>
          <g
             transform="translate(208.2702,149.7108)"
             id="g1558">
            <path
               inkscape:connector-curvature="0"
               id="path1560"
               style="fill:#d6e3dd;fill-opacity:1;fill-rule:nonzero;stroke:none"
               d="m 0,0 c 8.052,2.809 42.197,14.019 64.699,10.467 0.729,-0.115 1.198,-0.836 1.027,-1.555 -1.204,-5.059 -5.591,-23.291 -8.093,-31.046 -0.45,-1.394 -1.711,-2.36 -3.173,-2.439 l -57.809,-3.128 -3.38,9.151 4.365,16.203 C -1.968,-1.247 -1.103,-0.385 0,0" />
          </g>
          <g
             transform="translate(107.6832,65.9911)"
             id="g1562">
            <path
               inkscape:connector-curvature="0"
               id="path1564"
               style="fill:#f49211;fill-opacity:1;fill-rule:nonzero;stroke:none"
               d="m 0,0 c -0.208,-1.796 -0.338,-3.689 -0.409,-5.678 0,0 -11.802,-2.741 -16.67,1.242 0,0 -12.208,-0.076 -12.426,0.578 l -0.496,3.406 c 0,0 25.271,-0.407 29.461,0.436 C -0.352,0.027 -0.165,0.029 0,0" />
          </g>
          <g
             transform="translate(89.7648,68.7338)"
             id="g1566">
            <path
               inkscape:connector-curvature="0"
               id="path1568"
               style="fill:#f49211;fill-opacity:1;fill-rule:nonzero;stroke:none"
               d="m 0,0 c 0,0 -8.128,-3.41 -11.763,-2.805 1.089,1.33 4.372,5.66 1.534,5.999 0,0 3.462,18.653 11.3,19.845 C 1.071,23.039 6.32,0.225 0,0" />
          </g>
          <g
             transform="translate(89.7648,68.7338)"
             id="g1570">
            <path
               inkscape:connector-curvature="0"
               id="path1572"
               style="fill:#e27e05;fill-opacity:1;fill-rule:nonzero;stroke:none"
               d="M 0,0 C -1.501,4.999 1.071,23.039 1.071,23.039 1.071,23.039 6.32,0.225 0,0" />
          </g>
          <g
             transform="translate(333.6895,82.9911)"
             id="g1574">
            <path
               inkscape:connector-curvature="0"
               id="path1576"
               style="fill:#e59c0a;fill-opacity:1;fill-rule:nonzero;stroke:none"
               d="m 0,0 c -3.459,0.161 -5.192,7.505 -5.192,7.505 0.689,7.233 -6.598,5.912 -9.373,6.662 -44.75,12.109 -124.361,0.754 -141.21,0.486 -1.386,-0.022 -13.212,-4.536 -13.203,-4.789 -7.526,8.979 -19.617,11.522 -27.217,11.017 -32.549,-2.163 -29.366,-32.537 -29.366,-32.537 0,0 0.101,-0.067 0.292,-0.2 6.527,34.585 37.298,27.508 37.298,27.508 17.643,-3.757 26.024,-18.804 25.415,-32.562 0.066,0.526 15.335,-2.508 16.99,-2.181 l 81.86,-2.125 44.847,-1.173 c 0,0 7.266,-1.521 11.316,8.357 0.198,0.458 0.376,0.948 0.556,1.468 0,0 3.151,5.717 7.441,11.163 C 0.474,-0.51 0.331,-0.016 0,0" />
          </g>
          <g
             transform="translate(188.8335,68.0182)"
             id="g1578">
            <path
               inkscape:connector-curvature="0"
               id="path1580"
               style="fill:#f7d877;fill-opacity:1;fill-rule:nonzero;stroke:none"
               d="M 0,0 C 0,0 64.958,13.323 116.16,4.197 Z" />
          </g>
          <g
             transform="translate(99.1749,101.6329)"
             id="g1582">
            <path
               inkscape:connector-curvature="0"
               id="path1584"
               style="fill:#eebb2d;fill-opacity:1;fill-rule:nonzero;stroke:none"
               d="M 0,0 C 0,0 23.853,-13.086 61.026,20.122 L 26.439,14.549 C 26.439,14.549 11.667,5.424 0,0" />
          </g>
          <g
             transform="translate(393.5371,127.9015)"
             id="g1586">
            <path
               inkscape:connector-curvature="0"
               id="path1588"
               style="fill:#f49211;fill-opacity:1;fill-rule:nonzero;stroke:none"
               d="M 0,0 C -0.306,0.118 -0.631,0.268 -0.966,0.429 -17.585,8.352 -22.432,23.271 -22.577,23.734 -22.033,23.159 -3.458,3.513 0,0" />
          </g>
          <g
             transform="translate(340.0123,161.3872)"
             id="g1590">
            <path
               inkscape:connector-curvature="0"
               id="path1592"
               style="fill:#111111;fill-opacity:1;fill-rule:nonzero;stroke:none"
               d="M 0,0 C 0,0 4.762,3.843 5.573,-1.038 Z" />
          </g>
          <g
             transform="translate(351.1116,170.4093)"
             id="g1594">
            <path
               inkscape:connector-curvature="0"
               id="path1596"
               style="fill:#111111;fill-opacity:1;fill-rule:nonzero;stroke:none"
               d="m 0,0 -0.387,0.293 -6.526,-8.602 0.387,-0.294 z" />
          </g>
          <g
             transform="translate(409.3301,71.8672)"
             id="g1598">
            <path
               inkscape:connector-curvature="0"
               id="path1600"
               style="fill:#f49211;fill-opacity:1;fill-rule:nonzero;stroke:none"
               d="m 0,0 c -0.675,-5.583 -2.361,-15.062 -6.17,-15.974 0,0 -7.863,-1.71 -9.376,-0.778 0,0 0.621,26.516 -21.103,33.327 -12.868,4.023 -37.859,4.178 -41.552,-34.388 0,0 -146.931,3.543 -156.864,1.93 0,0 -3.859,0.698 -3.061,6.711 0,0 0.059,1.72 -0.082,3.812 0,0 132.373,12.99 155.024,2.452 0,0 12.845,31.426 44.672,24.063 0,0 12.613,-2.143 20.884,-13.943 0,0 10.957,-9.849 17.303,-7.29 C -0.209,-0.032 -0.104,-0.006 0,0" />
          </g>
          <g
             transform="translate(127.8713,119.517)"
             id="g1602">
            <path
               inkscape:connector-curvature="0"
               id="path1604"
               style="fill:#f7d877;fill-opacity:1;fill-rule:nonzero;stroke:none"
               d="m 0,0 c 0,0 33.313,6.645 42.168,12.979 0,0 -21.336,-12.533 -10.431,-11.79 C 92.471,5.33 230.464,8.22 230.48,7.899 230.819,0.679 -2.803,-3.397 -2.803,-3.397 c 0,0 3.624,1.047 2.803,3.397" />
          </g>
          <g
             transform="translate(368.8251,156.1558)"
             id="g1606">
            <path
               inkscape:connector-curvature="0"
               id="path1608"
               style="fill:#e27e05;fill-opacity:1;fill-rule:nonzero;stroke:none"
               d="m 0,0 c 0,0 -8.937,-1.417 -11.213,-3.146 -0.595,-0.452 -1.363,-0.584 -2.079,-0.369 -4.954,1.484 -20.981,6.021 -37.699,7.875 0,0 28.002,-0.351 50.991,-4.36" />
          </g>
          <g
             transform="translate(125.6076,116.1877)"
             id="g1610">
            <path
               inkscape:connector-curvature="0"
               id="path1612"
               style="fill:#e0e9ef;fill-opacity:1;fill-rule:nonzero;stroke:none"
               d="m 0,0 -0.326,-0.326 c -0.122,-0.136 -0.245,-0.258 -0.38,-0.381 -14.351,-14.092 -35.36,-12.624 -35.36,-12.624 0,0 -0.204,6.767 6.088,11.823 1.794,1.454 4.104,2.758 7.094,3.723 0.543,0.19 1.114,0.353 1.698,0.503 0,0 8.059,1.264 17.897,3.533 L -3.166,6.197 C -3.166,6.197 7.094,3.465 0,0" />
          </g>
          <g
             transform="translate(326.1464,68.9591)"
             id="g1614">
            <path
               inkscape:connector-curvature="0"
               id="path1616"
               style="fill:#e27e05;fill-opacity:1;fill-rule:nonzero;stroke:none"
               d="m 0,0 c -4.05,-9.878 -11.316,-8.357 -11.316,-8.357 l -44.847,1.173 -81.86,2.125 c -1.655,-0.327 -3.049,-0.408 -4.218,-0.312 l -4.448,3.634 c 0,0 117.389,12.507 145.973,1.967 C -0.475,0.142 -0.225,0.073 0,0" />
          </g>
          <g
             transform="translate(343.7153,90.3908)"
             id="g1618">
            <path
               inkscape:connector-curvature="0"
               id="path1620"
               style="fill:none;stroke:#e27e05;stroke-width:1;stroke-linecap:butt;stroke-linejoin:miter;stroke-miterlimit:10;stroke-dasharray:none;stroke-opacity:1"
               d="m 0,0 c -3.303,-1.621 -6.694,-5.147 -9.572,-8.801 -4.29,-5.446 -7.441,-11.162 -7.441,-11.162 -0.18,-0.521 -0.358,-1.011 -0.556,-1.469 -4.05,-9.877 -11.316,-8.356 -11.316,-8.356 l -44.847,1.172 -81.86,2.126 c -1.655,-0.328 -3.049,-0.409 -4.218,-0.313 -7.102,0.569 -5.812,7.784 -5.812,7.784 -3.212,7.683 -4.255,16.51 -4.309,24.493 -0.084,12.913 2.394,23.59 2.394,23.59 10.131,1.843 55.096,3.872 97.778,5.436 43.263,1.589 84.201,2.705 84.201,2.705 C 19.006,12.606 0,0 0,0 Z" />
          </g>
          <g
             transform="translate(273.6999,124.5187)"
             id="g1622">
            <path
               inkscape:connector-curvature="0"
               id="path1624"
               style="fill:none;stroke:#e27e05;stroke-width:1;stroke-linecap:butt;stroke-linejoin:miter;stroke-miterlimit:10;stroke-dasharray:none;stroke-opacity:1"
               d="M 0,0 C 0,0 -8.349,-51.238 -3.925,-62.081" />
          </g>
          <g
             transform="translate(358.1575,127.5958)"
             id="g1626">
            <path
               inkscape:connector-curvature="0"
               id="path1628"
               style="fill:#434443;fill-opacity:1;fill-rule:nonzero;stroke:none"
               d="m 0,0 c -0.004,-0.093 -0.03,-0.196 -0.097,-0.307 -23.369,-0.2 -53.241,-1.249 -83.731,-2.623 -34.837,-1.587 -70.473,-3.603 -98.133,-5.264 l -0.018,0.053 c 0,0 -0.558,18.57 6.06,21.645 0,0 45.244,25.645 100.516,21.912 18.144,-1.227 69.906,-2.991 71.5,-13.359 0,0 4.001,-18.17 3.903,-22.057" />
          </g>
          <g
             transform="translate(289.3988,157.2152)"
             id="g1630">
            <path
               inkscape:connector-curvature="0"
               id="path1632"
               style="fill:#d6e3dd;fill-opacity:1;fill-rule:nonzero;stroke:none"
               d="m 0,0 c -1.449,-7.445 -5.827,-30.083 -5.79,-31.601 l 55.057,1.245 c 0,0 10.955,13.973 8.625,23.683 C 57.607,-5.487 21.51,1.872 2.921,2.335 1.505,2.37 0.27,1.39 0,0" />
          </g>
          <g
             transform="translate(184.9338,138.5049)"
             id="g1634">
            <path
               inkscape:connector-curvature="0"
               id="path1636"
               style="fill:#d6e3dd;fill-opacity:1;fill-rule:nonzero;stroke:none"
               d="M 0,0 C 3.508,2.869 11.977,6.229 16.357,7.814 17.037,8.06 17.724,7.481 17.591,6.77 16.87,2.925 14.817,-7.593 13.798,-8.251 c 0,0 -11.033,-2.947 -15.235,-0.33 0,0 -1.051,6.546 1.437,8.581" />
          </g>
          <g
             transform="translate(199.6874,135.9164)"
             id="g1638">
            <path
               inkscape:connector-curvature="0"
               id="path1640"
               style="fill:#2a2b2a;fill-opacity:1;fill-rule:nonzero;stroke:none"
               d="m 0,0 c 0,0 4.282,-8.328 0.145,-11.767 0,0 -12.005,-1.518 -12.145,6.618 0,0 0.855,7.224 12,5.149" />
          </g>
        </g>
      </g>
      <g
         id="g1642">
        <g
           clip-path="url(#clipPath1648)"
           id="g1644">
          <g
             id="g1650">
            <g
               id="g1652" />
            <g
               id="g1668">
              <g
                 style="opacity:0.57000703"
                 id="g1666"
                 clip-path="url(#clipPath1656)">
                <g
                   id="g1660"
                   transform="translate(289.1995,124.4434)">
                  <path
                     inkscape:connector-curvature="0"
                     id="path1658"
                     style="fill:#ffffff;fill-opacity:1;fill-rule:nonzero;stroke:none"
                     d="m 0,0 3.971,-3.547 38.124,42.679 -3.971,3.547 z" />
                </g>
                <g
                   id="g1664"
                   transform="translate(299.8819,121.0969)">
                  <path
                     inkscape:connector-curvature="0"
                     id="path1662"
                     style="fill:#ffffff;fill-opacity:1;fill-rule:nonzero;stroke:none"
                     d="m 0,0 8.858,-7.912 38.124,42.679 -8.858,7.912 z" />
                </g>
              </g>
            </g>
          </g>
        </g>
      </g>
      <g
         id="g1670">
        <g
           clip-path="url(#clipPath1676)"
           id="g1672">
          <g
             transform="translate(208.2702,149.7108)"
             id="g1678">
            <path
               inkscape:connector-curvature="0"
               id="path1680"
               style="fill:#d6e3dd;fill-opacity:1;fill-rule:nonzero;stroke:none"
               d="m 0,0 c 8.052,2.809 42.197,14.019 64.699,10.467 0.729,-0.115 1.198,-0.836 1.027,-1.555 -1.204,-5.059 -5.591,-23.291 -8.093,-31.046 -0.45,-1.394 -1.711,-2.36 -3.173,-2.439 l -57.809,-3.128 -3.38,9.151 4.365,16.203 C -1.968,-1.247 -1.103,-0.385 0,0" />
          </g>
        </g>
      </g>
      <g
         id="g1682">
        <g
           clip-path="url(#clipPath1688)"
           id="g1684">
          <g
             id="g1690">
            <g
               id="g1692" />
            <g
               id="g1708">
              <g
                 style="opacity:0.55999798"
                 id="g1706"
                 clip-path="url(#clipPath1696)">
                <g
                   id="g1700"
                   transform="translate(208.5742,115.3733)">
                  <path
                     inkscape:connector-curvature="0"
                     id="path1698"
                     style="fill:#ffffff;fill-opacity:1;fill-rule:nonzero;stroke:none"
                     d="M 0,0 3.729,-2.992 47.234,51.229 43.505,54.22 Z" />
                </g>
                <g
                   id="g1704"
                   transform="translate(220.7789,115.7902)">
                  <path
                     inkscape:connector-curvature="0"
                     id="path1702"
                     style="fill:#ffffff;fill-opacity:1;fill-rule:nonzero;stroke:none"
                     d="M 0,0 14.527,-11.657 58.033,42.564 43.505,54.221 Z" />
                </g>
              </g>
            </g>
          </g>
        </g>
      </g>
    </g>
    <path
       style="fill:#241c1c;stroke:#000000;stroke-width:0;stroke-linecap:round;stroke-linejoin:miter;stroke-miterlimit:4;stroke-dasharray:none;stroke-dashoffset:0"
       d="m 1.477817,151.83384 7.653518,0.38852 c 3.055998,1.71315 5.033398,1.37698 6.532225,1.39763 l 0.637913,2.4634 h -2.743025 l -9.5927684,-0.0638 v 0 z"
       id="rect8376"
       inkscape:connector-curvature="0"
       sodipodi:nodetypes="cccccccc" />
    <path
       style="fill:#000000;stroke:#000000;stroke-width:0;stroke-linecap:round;stroke-linejoin:miter;stroke-miterlimit:4;stroke-dasharray:none;stroke-dashoffset:0"
       d="m 195.86682,156.55426 c 2.8788,0.19535 3.48708,-0.17692 4.40871,-0.47087 1.49841,-0.12078 2.49542,-0.80008 3.31714,-2.10511 l -0.63791,8.86699 -2.29648,0.70171 -4.21023,0.0638 c -1.23349,-0.45501 -2.05196,-0.99301 -1.59478,-1.78615 z"
       id="rect8385"
       inkscape:connector-curvature="0"
       sodipodi:nodetypes="cccccccc" />
    <path
       style="fill:#66ff00;stroke:#000000;stroke-width:0;stroke-linecap:round;stroke-linejoin:miter;stroke-miterlimit:4;stroke-dasharray:none;stroke-dashoffset:0"
       id="path8388"
       sodipodi:type="arc"
       sodipodi:cx="0.11231147"
       sodipodi:cy="154.25206"
       sodipodi:rx="1.4652011"
       sodipodi:ry="1.0701519"
       sodipodi:start="0"
       sodipodi:end="6.1914857"
       sodipodi:open="true"
       d="m 1.5775126,154.25206 a 1.4652011,1.0701519 0 0 1 -1.43161448,1.06987 1.4652011,1.0701519 0 0 1 -1.49724802,-1.02082 1.4652011,1.0701519 0 0 1 1.36297201,-1.11667 1.4652011,1.0701519 0 0 1 1.55973449,0.96962"
       transform="matrix(0.99704404,0.07683217,0.02049518,0.99978995,0,0)" />
    <path
       style="fill:#66ff00;stroke:#000000;stroke-width:0;stroke-linecap:round;stroke-linejoin:miter;stroke-miterlimit:4;stroke-dasharray:none;stroke-dashoffset:0"
       id="path8390"
       sodipodi:type="arc"
       sodipodi:cx="247.0368"
       sodipodi:cy="-67.823639"
       sodipodi:rx="1.2796222"
       sodipodi:ry="1.4967692"
       sodipodi:start="0"
       sodipodi:end="6.1914857"
       sodipodi:open="true"
       d="m 248.31643,-67.823639 a 1.2796222,1.4967692 0 0 1 -1.25029,1.496376 1.2796222,1.4967692 0 0 1 -1.30761,-1.427773 1.2796222,1.4967692 0 0 1 1.19034,-1.561834 1.2796222,1.4967692 0 0 1 1.36218,1.35617"
       transform="matrix(0.59664407,0.80250598,-0.82196321,0.56954059,0,0)" />
  </g>
</svg>
