<?xml version="1.0" encoding="UTF-8" standalone="no"?>
<!-- Created with Inkscape (http://www.inkscape.org/) -->

<svg
   xmlns:dc="http://purl.org/dc/elements/1.1/"
   xmlns:cc="http://creativecommons.org/ns#"
   xmlns:rdf="http://www.w3.org/1999/02/22-rdf-syntax-ns#"
   xmlns:svg="http://www.w3.org/2000/svg"
   xmlns="http://www.w3.org/2000/svg"
   xmlns:sodipodi="http://sodipodi.sourceforge.net/DTD/sodipodi-0.dtd"
   xmlns:inkscape="http://www.inkscape.org/namespaces/inkscape"
   width="210mm"
   height="297mm"
   viewBox="0 0 210 297"
   version="1.1"
   id="svg14427"
   inkscape:version="0.92.2 (5c3e80d, 2017-08-06)"
   sodipodi:docname="green pointer right.svg">
  <defs
     id="defs14421" />
  <sodipodi:namedview
     id="base"
     pagecolor="#ffffff"
     bordercolor="#666666"
     borderopacity="1.0"
     inkscape:pageopacity="0.0"
     inkscape:pageshadow="2"
     inkscape:zoom="0.35"
     inkscape:cx="-834.28572"
     inkscape:cy="560"
     inkscape:document-units="mm"
     inkscape:current-layer="layer1"
     showgrid="false"
     inkscape:window-width="2736"
     inkscape:window-height="1699"
     inkscape:window-x="-13"
     inkscape:window-y="-13"
     inkscape:window-maximized="1" />
  <metadata
     id="metadata14424">
    <rdf:RDF>
      <cc:Work
         rdf:about="">
        <dc:format>image/svg+xml</dc:format>
        <dc:type
           rdf:resource="http://purl.org/dc/dcmitype/StillImage" />
        <dc:title />
      </cc:Work>
    </rdf:RDF>
  </metadata>
  <g
     inkscape:label="Layer 1"
     inkscape:groupmode="layer"
     id="layer1">
    <g
       transform="matrix(1.984164,0,0,1.984164,171.27099,-856.52787)"
       id="g15036">
      <path
         id="path12331"
         d="m 4.7305075,466.3163 a 34.368176,58.433256 63.112792 0 1 12.7852745,25.76637 34.368176,58.433256 63.112792 0 1 -60.599402,49.62694 34.368176,58.433256 63.112792 0 1 -41.741123,-7.37939 34.368176,58.433256 63.112792 0 0 34.067175,1.95493 34.368176,58.433256 63.112792 0 0 60.5994025,-49.62695 34.368176,58.433256 63.112792 0 0 -5.111327,-20.3419 z"
         style="fill:#7fff2a;stroke:#000000;stroke-width:0;stroke-linecap:round;stroke-linejoin:miter;stroke-miterlimit:4;stroke-dasharray:none;stroke-dashoffset:0"
         inkscape:connector-curvature="0" />
      <path
         sodipodi:nodetypes="cccccccc"
         inkscape:connector-curvature="0"
         id="rect14413"
         d="m 2.4958025,516.1333 -5.07705,1.87089 -6.922281,6.17393 -0.9354395,3.74083 v 0 l 27.714776,-4.67721 v 0 z"
         style="opacity:1;fill:#7fff2a;fill-opacity:1;stroke:#000000;stroke-width:0;stroke-linecap:round;stroke-linejoin:miter;stroke-miterlimit:4;stroke-dasharray:none;stroke-dashoffset:0" />
      <path
         sodipodi:nodetypes="cccccccc"
         inkscape:connector-curvature="0"
         id="rect14418"
         d="m 4.7305025,466.3163 -56.8317915,39.2859 v 0 l -32.723454,28.72802 v 0 0 c 40.483204,17.97466 38.071135,1.961 82.2434955,-16.32603 25.6366205,-37.40266 14.9513605,-43.22108 7.31175,-51.68789 z"
         style="opacity:0.153;fill:#7fff2a;fill-opacity:1;stroke:#000000;stroke-width:0;stroke-linecap:round;stroke-linejoin:miter;stroke-miterlimit:4;stroke-dasharray:none;stroke-dashoffset:0" />
    </g>
  </g>
</svg>
