<?xml version="1.0" encoding="UTF-8" standalone="no"?>
<!-- Generator: Adobe Illustrator 18.1.1, SVG Export Plug-In . SVG Version: 6.00 Build 0)  -->

<svg
   xmlns:dc="http://purl.org/dc/elements/1.1/"
   xmlns:cc="http://creativecommons.org/ns#"
   xmlns:rdf="http://www.w3.org/1999/02/22-rdf-syntax-ns#"
   xmlns:svg="http://www.w3.org/2000/svg"
   xmlns="http://www.w3.org/2000/svg"
   xmlns:sodipodi="http://sodipodi.sourceforge.net/DTD/sodipodi-0.dtd"
   xmlns:inkscape="http://www.inkscape.org/namespaces/inkscape"
   version="1.1"
   id="Capa_1"
   x="0px"
   y="0px"
   viewBox="0 0 470.642 470.642"
   style="enable-background:new 0 0 470.642 470.642;"
   xml:space="preserve"
   sodipodi:docname="walking man left green.svg"
   inkscape:version="0.92.2 (5c3e80d, 2017-08-06)"><metadata
     id="metadata45"><rdf:RDF><cc:Work
         rdf:about=""><dc:format>image/svg+xml</dc:format><dc:type
           rdf:resource="http://purl.org/dc/dcmitype/StillImage" /><dc:title /></cc:Work></rdf:RDF></metadata><defs
     id="defs43" /><sodipodi:namedview
     pagecolor="#ffffff"
     bordercolor="#666666"
     borderopacity="1"
     objecttolerance="10"
     gridtolerance="10"
     guidetolerance="10"
     inkscape:pageopacity="0"
     inkscape:pageshadow="2"
     inkscape:window-width="2736"
     inkscape:window-height="1699"
     id="namedview41"
     showgrid="false"
     inkscape:zoom="0.50144271"
     inkscape:cx="-215.37854"
     inkscape:cy="235.321"
     inkscape:window-x="-13"
     inkscape:window-y="-13"
     inkscape:window-maximized="1"
     inkscape:current-layer="Capa_1" /><g
     id="g8"
     style="fill:#66ff00"
     transform="matrix(-0.93514648,0,0,0.93514648,459.35759,12.00002)"><g
       id="g6"
       style="fill:#66ff00"><path
         style="fill:#66ff00"
         d="m 223.821,76.022 c 10.333,-0.333 19,-4.333 26,-12 7,-7.667 10.333,-16.667 10,-27 -0.333,-10.335 -4.167,-19.168 -11.5,-26.5 -7.333,-7.333 -16.167,-10.833 -26.5,-10.5 -10.333,0.333 -19,4.333 -26,12 -7,7.667 -10.5,16.667 -10.5,27 0,10.333 3.833,19.167 11.5,26.5 7.667,7.333 16.667,10.833 27,10.5 z"
         id="path2"
         inkscape:connector-curvature="0" /><path
         style="fill:#66ff00"
         d="m 350.321,202.522 -55,-30 -45,-72 c -8.667,-10.667 -19.333,-16 -32,-16 -8.667,0 -17,3.667 -25,11 l -68,69 c -2,2.667 -3.333,5.667 -4,9 l -9,77 v 2 c 0,4.666 1.667,8.666 5,12 3.333,3.332 7.333,5 12,5 4.667,0 8.5,-1.668 11.5,-5 3,-3.334 4.833,-7 5.5,-11 l 7,-66 24,-24 -22,184 -39,87.001 c -1.333,4 -2,7.658 -2,11.002 0,7.322 2.5,13.5 7.5,18.5 5,5 11.167,7.164 18.5,6.5 10,0 17.333,-4.678 22,-14 l 42,-94.002 c 0,-0.67 0.333,-1.835 1,-3.5 0.668,-1.67 1.335,-3.17 2,-4.5 0.667,-1.335 1,-2.67 1,-4 l 5,-45.001 43,148.003 c 4.667,12 13,17.666 25,17 6.667,0 12.5,-2.5 17.5,-7.5 5,-5 7.5,-11.178 7.5,-18.5 0,-0.678 -0.167,-1.5 -0.5,-2.5 -0.333,-1 -0.5,-1.836 -0.5,-2.502 l -60,-205.001 7,-67 17,27 c 1.333,2 3,3.667 5,5 l 59,33 c 4,1.333 6.667,2 8,2 4.667,0 8.667,-1.833 12,-5.5 3.333,-3.668 5,-7.834 5,-12.5 0,-6 -2.667,-10.667 -8,-14 z"
         id="path4"
         inkscape:connector-curvature="0" /></g></g><g
     id="g10" /><g
     id="g12" /><g
     id="g14" /><g
     id="g16" /><g
     id="g18" /><g
     id="g20" /><g
     id="g22" /><g
     id="g24" /><g
     id="g26" /><g
     id="g28" /><g
     id="g30" /><g
     id="g32" /><g
     id="g34" /><g
     id="g36" /><g
     id="g38" /></svg>