<?xml version="1.0" encoding="UTF-8" standalone="no"?>
<!-- Created with Inkscape (http://www.inkscape.org/) -->

<svg
   xmlns:dc="http://purl.org/dc/elements/1.1/"
   xmlns:cc="http://creativecommons.org/ns#"
   xmlns:rdf="http://www.w3.org/1999/02/22-rdf-syntax-ns#"
   xmlns:svg="http://www.w3.org/2000/svg"
   xmlns="http://www.w3.org/2000/svg"
   xmlns:sodipodi="http://sodipodi.sourceforge.net/DTD/sodipodi-0.dtd"
   xmlns:inkscape="http://www.inkscape.org/namespaces/inkscape"
   width="210mm"
   height="297mm"
   viewBox="0 0 210 297"
   version="1.1"
   id="svg14427"
   inkscape:version="0.92.2 (5c3e80d, 2017-08-06)"
   sodipodi:docname="yellow pointer left.svg">
  <defs
     id="defs14421" />
  <sodipodi:namedview
     id="base"
     pagecolor="#ffffff"
     bordercolor="#666666"
     borderopacity="1.0"
     inkscape:pageopacity="0.0"
     inkscape:pageshadow="2"
     inkscape:zoom="0.35"
     inkscape:cx="-841.42858"
     inkscape:cy="560"
     inkscape:document-units="mm"
     inkscape:current-layer="layer1"
     showgrid="false"
     inkscape:window-width="2736"
     inkscape:window-height="1699"
     inkscape:window-x="-13"
     inkscape:window-y="-13"
     inkscape:window-maximized="1" />
  <metadata
     id="metadata14424">
    <rdf:RDF>
      <cc:Work
         rdf:about="">
        <dc:format>image/svg+xml</dc:format>
        <dc:type
           rdf:resource="http://purl.org/dc/dcmitype/StillImage" />
        <dc:title />
      </cc:Work>
    </rdf:RDF>
  </metadata>
  <g
     inkscape:label="Layer 1"
     inkscape:groupmode="layer"
     id="layer1">
    <g
       id="g15002"
       style="fill:#ffcc00"
       transform="matrix(1.9771888,0,0,1.9771888,-100.05009,-122.66367)">
      <path
         id="path12331"
         d="m 65.474014,86.073536 a 58.433256,34.368176 26.887208 0 0 -12.78527,25.766374 58.433256,34.368176 26.887208 0 0 60.599396,49.62694 58.433256,34.368176 26.887208 0 0 41.74112,-7.37939 58.433256,34.368176 26.887208 0 1 -34.06717,1.95493 58.433256,34.368176 26.887208 0 1 -60.599396,-49.62695 58.433256,34.368176 26.887208 0 1 5.11132,-20.341904 z"
         style="fill:#ffcc00;stroke:#000000;stroke-width:0;stroke-linecap:round;stroke-linejoin:miter;stroke-miterlimit:4;stroke-dasharray:none;stroke-dashoffset:0"
         inkscape:connector-curvature="0" />
      <path
         sodipodi:nodetypes="cccccccc"
         inkscape:connector-curvature="0"
         id="rect14413"
         d="m 67.708724,135.89054 5.07705,1.87089 6.92228,6.17393 0.93544,3.74083 v 0 l -19.85705,1.6838 v 0 z"
         style="opacity:1;fill:#ffcc00;fill-opacity:1;stroke:#000000;stroke-width:0;stroke-linecap:round;stroke-linejoin:miter;stroke-miterlimit:4;stroke-dasharray:none;stroke-dashoffset:0" />
      <path
         sodipodi:nodetypes="cccccccc"
         inkscape:connector-curvature="0"
         id="rect14418"
         d="m 65.474024,86.073536 56.831786,39.285904 v 0 l 32.72345,28.72802 v 0 0 c -40.4832,17.97466 -38.07113,1.961 -82.243486,-16.32603 -25.63662,-37.40266 -14.95136,-43.221084 -7.31175,-51.687894 z"
         style="opacity:0.153;fill:#ffcc00;fill-opacity:1;stroke:#000000;stroke-width:0;stroke-linecap:round;stroke-linejoin:miter;stroke-miterlimit:4;stroke-dasharray:none;stroke-dashoffset:0" />
    </g>
  </g>
</svg>
