<?xml version="1.0" encoding="UTF-8" standalone="no"?>
<!-- Created with Inkscape (http://www.inkscape.org/) -->

<svg
   xmlns:dc="http://purl.org/dc/elements/1.1/"
   xmlns:cc="http://creativecommons.org/ns#"
   xmlns:rdf="http://www.w3.org/1999/02/22-rdf-syntax-ns#"
   xmlns:svg="http://www.w3.org/2000/svg"
   xmlns="http://www.w3.org/2000/svg"
   xmlns:sodipodi="http://sodipodi.sourceforge.net/DTD/sodipodi-0.dtd"
   xmlns:inkscape="http://www.inkscape.org/namespaces/inkscape"
   width="210mm"
   height="297mm"
   viewBox="0 0 210 297"
   version="1.1"
   id="svg13836"
   inkscape:version="0.92.2 (5c3e80d, 2017-08-06)"
   sodipodi:docname="yellow pointer foreward.svg">
  <defs
     id="defs13830" />
  <sodipodi:namedview
     id="base"
     pagecolor="#ffffff"
     bordercolor="#666666"
     borderopacity="1.0"
     inkscape:pageopacity="0.0"
     inkscape:pageshadow="2"
     inkscape:zoom="0.35"
     inkscape:cx="-245.71429"
     inkscape:cy="560"
     inkscape:document-units="mm"
     inkscape:current-layer="layer1"
     showgrid="false"
     inkscape:window-width="2736"
     inkscape:window-height="1699"
     inkscape:window-x="-13"
     inkscape:window-y="-13"
     inkscape:window-maximized="1" />
  <metadata
     id="metadata13833">
    <rdf:RDF>
      <cc:Work
         rdf:about="">
        <dc:format>image/svg+xml</dc:format>
        <dc:type
           rdf:resource="http://purl.org/dc/dcmitype/StillImage" />
        <dc:title></dc:title>
      </cc:Work>
    </rdf:RDF>
  </metadata>
  <g
     inkscape:label="Layer 1"
     inkscape:groupmode="layer"
     id="layer1">
    <g
       transform="translate(262.15627,-414.63798)"
       id="g13815"
       style="fill:#ffcc00">
      <path
         inkscape:connector-curvature="0"
         id="path12331"
         transform="scale(0.26458333)"
         d="m -810.99219,2066.5195 a 224.99947,127.49998 0 0 0 -2.76953,26.3438 224.99947,127.49998 0 0 0 229.91992,121.623 A 224.99947,127.49998 0 0 0 -364,2087.0195 l -0.94531,-11.6757 a 224.99947,127.49998 0 0 0 -0.14649,-0.7129 224.99947,127.49997 0 0 1 -216.74804,107.3574 224.99947,127.49997 0 0 1 -229.15235,-115.4688 z"
         style="fill:#ffcc00;stroke:#000000;stroke-width:0;stroke-linecap:round;stroke-linejoin:miter;stroke-miterlimit:4;stroke-dasharray:none;stroke-dashoffset:0" />
      <path
         sodipodi:nodetypes="cccccccc"
         inkscape:connector-curvature="0"
         id="rect12351"
         d="m -168.01039,581.16241 h 24.07708 v 0 l -12.17083,12.96458 v 0 0 0 z"
         style="fill:#ffcc00;stroke:#000000;stroke-width:0;stroke-linecap:round;stroke-linejoin:miter;stroke-miterlimit:4;stroke-dasharray:none;stroke-dashoffset:0" />
      <path
         sodipodi:nodetypes="cccccccc"
         inkscape:connector-curvature="0"
         id="rect12356"
         d="m -252.98494,507.16898 111.96203,30.69167 44.464466,11.24072 -0.03876,-0.18862 0.03876,0.18862 v 0 c -15.403416,51.44737 -64.983546,32.40528 -113.316306,15.93589 z"
         style="opacity:0.15;fill:#ffcc00;fill-opacity:1;stroke:#000000;stroke-width:0;stroke-linecap:round;stroke-linejoin:miter;stroke-miterlimit:4;stroke-dasharray:none;stroke-dashoffset:0" />
      <path
         sodipodi:nodetypes="ccccccccc"
         inkscape:connector-curvature="0"
         id="rect13807"
         d="m -214.57501,546.76661 162.4736,-41.16526 v 0 l -44.495794,43.3114 0.03876,0.18862 c -6.867636,16.95434 -21.452726,29.60126 -58.488136,29.71778 -31.89421,2.54297 -56.40022,-3.02307 -59.52843,-32.05254 z"
         style="opacity:0.15;fill:#ffcc00;fill-opacity:1;stroke:#000000;stroke-width:0;stroke-linecap:round;stroke-linejoin:miter;stroke-miterlimit:4;stroke-dasharray:none;stroke-dashoffset:0" />
    </g>
  </g>
</svg>
