<?xml version="1.0" encoding="UTF-8" standalone="no"?>
<!-- Created with Inkscape (http://www.inkscape.org/) -->

<svg
   xmlns:dc="http://purl.org/dc/elements/1.1/"
   xmlns:cc="http://creativecommons.org/ns#"
   xmlns:rdf="http://www.w3.org/1999/02/22-rdf-syntax-ns#"
   xmlns:svg="http://www.w3.org/2000/svg"
   xmlns="http://www.w3.org/2000/svg"
   xmlns:sodipodi="http://sodipodi.sourceforge.net/DTD/sodipodi-0.dtd"
   xmlns:inkscape="http://www.inkscape.org/namespaces/inkscape"
   width="210mm"
   height="297mm"
   viewBox="0 0 210 297"
   version="1.1"
   id="svg11752"
   inkscape:version="0.92.2 (5c3e80d, 2017-08-06)"
   sodipodi:docname="ZCYellow.svg">
  <defs
     id="defs11746" />
  <sodipodi:namedview
     id="base"
     pagecolor="#ffffff"
     bordercolor="#666666"
     borderopacity="1.0"
     inkscape:pageopacity="0.0"
     inkscape:pageshadow="2"
     inkscape:zoom="0.35"
     inkscape:cx="-891.42858"
     inkscape:cy="560"
     inkscape:document-units="mm"
     inkscape:current-layer="layer1"
     showgrid="false"
     inkscape:window-width="2736"
     inkscape:window-height="1699"
     inkscape:window-x="-13"
     inkscape:window-y="-13"
     inkscape:window-maximized="1" />
  <metadata
     id="metadata11749">
    <rdf:RDF>
      <cc:Work
         rdf:about="">
        <dc:format>image/svg+xml</dc:format>
        <dc:type
           rdf:resource="http://purl.org/dc/dcmitype/StillImage" />
        <dc:title />
      </cc:Work>
    </rdf:RDF>
  </metadata>
  <g
     inkscape:label="Layer 1"
     inkscape:groupmode="layer"
     id="layer1">
    <path
       style="fill:#ffcc00;stroke:#000000;stroke-width:0;stroke-linecap:round;stroke-linejoin:miter;stroke-miterlimit:4;stroke-dasharray:none;stroke-dashoffset:0"
       d="m 181.06473,133.69991 -2.77683,31.77219 v 0 l 23.17771,32.02006 8.14931,0.35692 -24.84211,-32.21378 z M 48.473203,132.20146 33.520592,164.7139 3.5149855,197.72078 H 27.053734 l 115.824536,0.25037 20.35047,-0.30606 -12.70435,-32.25699 -9.24493,-0.021 9.16712,32.29536 h -12.78943 l -5.61848,-32.31647 -9.23594,-0.0211 2.06534,32.33757 h -12.78942 l 1.49297,-32.35866 -9.2266,-0.021 -5.05545,32.37975 H 86.500136 l 8.622777,-32.40085 -9.217263,-0.021 -12.194591,32.42196 h -12.78908 l 15.77124,-32.44319 -9.208276,-0.0211 -19.35239,32.46414 H 35.343464 l 22.93839,-32.48524 -9.198938,-0.0211 L 22.55404,197.6825 H 9.7649696 L 39.888823,165.1549 v 0 z m 111.300967,33.22809 16.14543,32.04428 0.26388,-0.004 12.50722,0.0109 -19.66191,-32.03044 z"
       id="rect11510"
       inkscape:connector-curvature="0"
       sodipodi:nodetypes="cccccccccccccccccccccccccccccccccccccccccccccc" />
  </g>
</svg>
